<?xml version="1.0" standalone="no"?>
<!DOCTYPE svg PUBLIC "-//W3C//DTD SVG 20010904//EN"
 "http://www.w3.org/TR/2001/REC-SVG-20010904/DTD/svg10.dtd">
<svg version="1.0" xmlns="http://www.w3.org/2000/svg"
 width="5355.000000pt" height="5355.000000pt" viewBox="0 0 5355.000000 5355.000000"
 preserveAspectRatio="xMidYMid meet">

<g transform="translate(0.000000,5355.000000) scale(0.100000,-0.100000)"
fill="#000000" stroke="none">
<path d="M10760 31693 l-3390 -3287 0 -1831 0 -1831 2537 -2459 c1395 -1353
2919 -2831 3387 -3285 467 -454 853 -826 858 -828 4 -2 8 956 8 2130 l0 2133
-653 575 c-358 316 -1423 1253 -2366 2083 l-1713 1510 33 32 c19 18 981 848
2139 1845 1158 997 2207 1901 2332 2009 l228 196 0 2148 c0 1181 -2 2147 -5
2147 -2 0 -1530 -1479 -3395 -3287z"/>
<path d="M40910 32833 l0 -2149 922 -794 c508 -437 1572 -1355 2366 -2039
l1444 -1244 -34 -32 c-18 -18 -883 -781 -1923 -1696 -1039 -915 -2089 -1839
-2332 -2053 l-443 -390 0 -2133 c0 -1173 3 -2133 6 -2133 3 0 182 172 398 383
216 210 1742 1689 3390 3287 l2996 2905 0 1830 0 1830 -3325 3225 c-1829 1774
-3357 3254 -3395 3289 l-70 64 0 -2150z"/>
<path d="M19565 31654 c-517 -22 -958 -92 -1392 -220 -1162 -342 -2175 -1137
-2764 -2169 -480 -841 -709 -1888 -669 -3060 40 -1167 326 -2123 885 -2955
328 -489 760 -920 1279 -1279 609 -421 1404 -699 2276 -796 342 -38 893 -45
1165 -15 661 72 1211 229 1763 505 498 249 841 495 1250 899 403 397 687 786
933 1278 290 578 459 1184 536 1918 14 131 17 258 17 610 0 466 -7 580 -54
915 -201 1400 -898 2605 -1972 3408 -728 544 -1577 860 -2528 941 -177 15
-577 26 -725 20z m455 -964 c801 -72 1419 -494 1896 -1293 384 -643 600 -1431
676 -2467 16 -227 16 -962 0 -1180 -65 -842 -218 -1480 -493 -2049 -203 -420
-409 -714 -697 -993 -384 -373 -841 -586 -1366 -639 -149 -15 -473 -6 -611 16
-391 62 -755 219 -1049 453 -102 81 -286 261 -381 375 -722 857 -1076 2167
-1024 3792 34 1105 256 1984 674 2679 435 722 1017 1155 1715 1275 225 39 450
49 660 31z"/>
<path d="M29822 31378 c-17 -29 -1182 -2135 -2591 -4680 -1408 -2545 -2594
-4685 -2634 -4755 -41 -71 -154 -274 -252 -453 -98 -179 -322 -583 -497 -898
-175 -315 -321 -579 -324 -587 -5 -13 63 -15 554 -15 l560 0 390 703 c214 386
429 774 477 862 48 88 1296 2340 2772 5004 1477 2664 2687 4850 2690 4857 4
12 -87 14 -555 14 l-561 0 -29 -52z"/>
<path d="M31710 31066 l0 -364 38 -6 c20 -3 218 -20 440 -37 l403 -33 120
-104 119 -104 0 -3998 0 -3998 -120 -114 -121 -114 -437 -38 c-240 -21 -439
-40 -441 -42 -6 -5 -6 -25 -3 -406 l2 -328 2353 0 c2230 0 2651 5 2931 30 708
64 1231 202 1701 449 423 222 741 501 980 861 221 332 354 711 412 1171 24
192 24 638 0 809 -50 355 -148 649 -300 898 -393 645 -1113 1034 -2057 1111
-69 6 -170 13 -225 17 l-99 6 115 34 c1068 310 1726 897 1934 1723 51 208 60
295 60 611 -1 311 -13 425 -65 631 -77 302 -221 581 -412 799 -420 479 -1120
771 -2078 864 -336 33 -543 36 -2892 36 l-2358 0 0 -364z m4050 -457 c443 -36
820 -150 1086 -330 101 -68 241 -202 317 -304 75 -101 178 -310 216 -441 61
-210 75 -329 76 -639 0 -176 -5 -314 -13 -370 -63 -446 -198 -757 -435 -1002
-120 -125 -233 -208 -387 -287 -264 -135 -543 -212 -935 -258 -123 -14 -878
-19 -891 -5 -5 5 -10 822 -12 1816 l-4 1808 238 12 c132 7 255 14 274 15 55 5
333 -4 470 -15z m475 -4503 c881 -99 1409 -440 1650 -1066 172 -444 178 -1133
14 -1636 -184 -566 -599 -915 -1284 -1079 -262 -63 -478 -90 -847 -105 -228
-10 -787 0 -935 16 l-53 5 0 1929 0 1928 93 7 c369 27 1121 28 1362 1z"/>
</g>
</svg>
